HIERARCHY
ROOT hip
{
	OFFSET 0.000000 0.000000 0.000000 
	CHANNELS 6 Xposition Yposition Zposition Xrotation Zrotation Yrotation
	JOINT abdomen
	{
		OFFSET 0.000000 3.402643 0.000000 
		CHANNELS 3 Xrotation Zrotation Yrotation
		JOINT chest
		{
			OFFSET 0.000000 8.438565 -0.680529 
			CHANNELS 3 Xrotation Zrotation Yrotation
			JOINT neck
			{
				OFFSET 0.000000 10.207942 -0.272212 
				CHANNELS 3 Xrotation Zrotation Yrotation
				JOINT head
				{
					OFFSET 0.000000 3.130431 0.000000 
					CHANNELS 3 Xrotation Zrotation Yrotation
					End Site
					{
						OFFSET 0.000000 3.130435 0.000000 
					}
				}
			}
			JOINT lCollar
			{
				OFFSET 3.470700 6.669187 -0.816635 
				CHANNELS 3 Yrotation Zrotation Xrotation
				JOINT lShldr
				{
					OFFSET 3.198488 0.000000 0.000000 
					CHANNELS 3 Zrotation Yrotation Xrotation
					JOINT lForeArm
					{
						OFFSET 10.139888 0.000000 0.000000 
						CHANNELS 3 Yrotation Zrotation Xrotation
						JOINT lHand
						{
							OFFSET 8.370511 0.000000 0.000000 
							CHANNELS 3 Zrotation Yrotation Xrotation
							End Site
							{
								OFFSET 4.083176 0.000000 0.000000 
							}
						}
					}
				}
			}
			JOINT rCollar
			{
				OFFSET -3.470700 6.669187 -0.816635 
				CHANNELS 3 Yrotation Zrotation Xrotation
				JOINT rShldr
				{
					OFFSET -3.198488 0.000000 0.000000 
					CHANNELS 3 Zrotation Yrotation Xrotation
					JOINT rForeArm
					{
						OFFSET -10.139888 0.000000 0.000000 
						CHANNELS 3 Yrotation Zrotation Xrotation
						JOINT rHand
						{
							OFFSET -8.370511 0.000000 0.000000 
							CHANNELS 3 Zrotation Yrotation Xrotation
							End Site
							{
								OFFSET -4.083176 0.000000 0.000000 
							}
						}
					}
				}
			}
		}
	}
	JOINT lThigh
	{
		OFFSET 5.308129 -1.633274 1.361059 
		CHANNELS 3 Xrotation Zrotation Yrotation
		JOINT lShin
		{
			OFFSET -2.041588 -20.007561 0.000000 
			CHANNELS 3 Xrotation Zrotation Yrotation
			JOINT lFoot
			{
				OFFSET 0.000000 -19.190928 -1.224953 
				CHANNELS 3 Xrotation Yrotation Zrotation
				End Site
				{
					OFFSET 0.000000 -2.449906 4.627600 
				}
			}
		}
	}
	JOINT rThigh
	{
		OFFSET -5.308129 -1.633274 1.361059 
		CHANNELS 3 Xrotation Zrotation Yrotation
		JOINT rShin
		{
			OFFSET 2.041588 -20.007561 0.000000 
			CHANNELS 3 Xrotation Zrotation Yrotation
			JOINT rFoot
			{
				OFFSET 0.000000 -19.190928 -1.224953 
				CHANNELS 3 Xrotation Yrotation Zrotation
				End Site
				{
					OFFSET 0.000000 -2.449906 4.627600 
				}
			}
		}
	}
}
MOTION
Frames: 8
Frame Time: 0.033333
1.506452 49.409306 1.883225 18.663839 -4.525337 -0.921774 0.000000 0.000000 0.000000 -3.162393 10.882238 9.081647 9.699306 1.160632 0.048021 -10.913520 -6.040964 -5.061541 -0.432137 30.000000 24.592371 -105.668938 -2.744220 6.501166 -49.248260 -7.788609 71.836739 -16.269321 -4.689214 -57.567055 -20.232607 -23.327600 15.642585 65.104515 3.354221 68.807190 69.222786 -46.886356 63.782314 43.377037 6.465859 -80.569939 -52.067200 21.374451 16.671335 133.262817 15.938793 1.191622 13.431154 -6.904632 25.573366 -23.743774 6.735823 4.004608 31.209459 3.230722 2.516431 25.483572 -11.074095 20.629328 
1.505969 48.808624 1.752367 18.363224 -4.644559 -0.817493 0.000000 0.000000 0.000000 -1.802123 11.234817 9.151757 8.721604 0.814064 0.021257 -11.364318 -6.502091 -5.213103 -1.908706 30.000000 25.000000 -105.699730 -4.711019 6.397686 -47.876862 -7.524653 72.520180 -15.748197 -4.482630 -57.576458 -19.764833 -22.722225 16.078148 65.480972 4.838358 68.778725 66.905319 -47.364429 61.899307 43.142544 5.664744 -80.667984 -51.637028 20.544159 16.492857 133.885223 15.374916 1.064265 7.706880 -2.180069 28.382950 -26.058453 6.560166 4.074753 35.156460 3.142047 2.868796 23.994318 -11.112684 19.914259 
1.454497 47.735237 1.532491 19.069889 -5.623035 -0.455839 0.000000 0.000000 0.000000 -1.598863 12.241468 9.418264 7.334597 0.734114 0.018866 -11.839984 -6.583261 -5.707662 -2.817863 30.000000 25.000000 -106.989807 -6.329842 6.925703 -46.904457 -7.805249 72.057816 -15.001498 -4.285923 -57.719601 -19.834618 -23.033661 15.925761 66.034119 5.045690 69.084526 66.639587 -47.675930 59.835846 43.849861 4.220192 -80.998138 -54.143829 20.414955 15.794268 134.722824 15.822688 1.221592 9.252528 0.191327 24.902229 -30.286762 6.931694 4.372593 40.955669 3.828973 3.586748 21.997927 -11.540276 20.232510 
1.370514 46.107494 1.345545 19.366444 -6.710883 0.058964 0.000000 0.000000 0.000000 -1.153209 13.132197 9.640499 5.723011 0.634014 0.016096 -12.269321 -6.500857 -5.877973 -3.799016 30.000000 25.000000 -108.795288 -7.563000 7.698065 -46.633884 -8.087039 70.689484 -14.860859 -3.898896 -57.847652 -20.292421 -23.690815 15.486036 66.584854 4.697279 69.491478 67.553627 -47.767197 59.038448 43.605534 3.721966 -81.048264 -57.362011 20.712032 15.031392 135.060501 16.739262 1.442152 16.447906 -0.566506 16.876003 -34.497650 6.883317 4.571729 47.682316 5.885098 4.679296 19.310738 -12.003821 22.898603 
1.190554 43.822922 1.374276 16.431738 -7.703506 0.870370 0.000000 0.000000 0.000000 2.827225 13.919245 9.783340 3.974669 0.308827 0.002402 -13.768152 -7.167577 -5.654952 -6.427603 30.000000 25.000000 -107.042130 -9.803439 6.795783 -46.830498 -6.566682 68.666023 -15.818686 -4.436608 -57.512749 -19.603039 -21.446644 16.603247 65.978928 6.192740 68.826683 64.942451 -48.407551 57.080315 42.980534 3.076571 -81.033134 -57.116734 21.423998 15.345169 137.952499 18.164894 1.896833 11.087392 4.348374 24.406195 -34.503593 6.159823 4.373734 54.105179 10.075080 6.258009 6.986553 -15.372792 11.383012 
0.936948 41.608646 1.292717 14.755527 -9.222412 1.996909 0.000000 0.000000 0.000000 5.328947 15.015906 10.018000 1.914076 0.213263 -0.002444 -15.064120 -8.401178 -6.102415 -8.628151 30.000000 25.000000 -106.581116 -12.195695 6.501112 -46.218193 -5.109170 66.370140 -15.936378 -4.920251 -57.465115 -19.493906 -20.390724 17.026169 65.981987 6.729096 68.726196 63.314133 -48.708916 54.324421 42.719128 1.952988 -81.143570 -58.468502 21.644428 15.054048 138.263214 20.517263 2.478016 14.852579 4.044905 21.216434 -36.264267 6.843733 4.672389 60.662613 12.816948 7.500233 -4.157808 -17.695675 5.103157 
0.533192 39.790192 1.336964 11.604187 -11.035329 2.191067 0.000000 0.000000 0.000000 9.665668 16.426851 10.277643 -0.009764 -0.209461 -0.028968 -17.241461 -8.946378 -5.214492 -9.968577 30.000000 25.000000 -103.417221 -14.130401 4.964654 -44.923393 -2.060663 63.078922 -16.521111 -5.510357 -57.392235 -17.399033 -17.851507 18.678438 65.578857 9.201914 68.021248 58.219864 -49.022438 49.543499 41.490856 1.626856 -81.013794 -56.314526 23.014664 16.111134 137.442429 23.294638 3.100436 12.950854 6.424042 19.571507 -35.379410 10.009171 5.557700 64.950104 13.734421 8.119736 -11.802973 -18.408562 4.806613 
0.155230 38.346863 1.648928 5.091337 -12.481414 2.420901 0.000000 0.000000 0.000000 17.719379 17.693232 10.274566 -2.061018 -1.261346 -0.100246 -20.444925 -8.479304 -2.828663 -11.020185 25.094412 25.000000 -96.635002 -15.225182 1.686552 -43.001415 2.222379 57.984154 -17.779987 -5.705455 -57.443439 -13.618766 -13.810494 21.012955 63.703796 12.956639 66.194786 50.226421 -48.603313 41.639183 40.401756 1.035610 -80.959999 -48.180458 24.078959 18.661232 133.409653 26.702923 3.738466 11.781454 7.856985 27.405064 -30.001705 13.236753 6.283530 68.839729 14.406518 8.621860 -17.437513 -17.831293 2.732606 
